<?xml version="1.0" standalone="no"?>
<!DOCTYPE svg PUBLIC "-//W3C//DTD SVG 20010904//EN"
 "http://www.w3.org/TR/2001/REC-SVG-20010904/DTD/svg10.dtd">
<svg version="1.0" xmlns="http://www.w3.org/2000/svg"
 width="700.000000pt" height="700.000000pt" viewBox="0 0 700.000000 700.000000"
 preserveAspectRatio="xMidYMid meet">
<metadata>
Created by potrace 1.14, written by Peter Selinger 2001-2017
</metadata>
<g transform="translate(0.000000,700.000000) scale(0.100000,-0.100000)"
fill="#000000" stroke="none">
<path d="M2031 6805 c-5 -22 -13 -56 -16 -75 -3 -19 -21 -114 -40 -210 -36
-186 -51 -270 -60 -335 -3 -22 -7 -49 -10 -60 -4 -18 -31 -198 -40 -265 -2
-14 -6 -38 -9 -55 -7 -45 -43 -330 -51 -410 -4 -38 -8 -77 -10 -85 -2 -8 -6
-55 -10 -105 -4 -49 -9 -106 -11 -125 -14 -160 -19 -317 -18 -570 0 -262 3
-357 19 -545 13 -159 27 -303 30 -325 2 -14 6 -54 10 -90 7 -63 10 -94 19
-162 2 -18 7 -58 11 -88 3 -30 8 -66 10 -80 2 -14 9 -63 15 -110 6 -47 13 -96
15 -110 2 -14 14 -88 25 -165 26 -175 27 -181 46 -290 8 -49 16 -101 18 -114
2 -13 0 -54 -4 -90 -5 -36 -11 -100 -15 -141 -3 -41 -8 -86 -10 -100 -2 -14
-7 -59 -10 -100 -4 -41 -8 -86 -10 -100 -2 -14 -7 -59 -10 -100 -3 -41 -8 -91
-10 -110 -2 -19 -7 -60 -10 -90 -12 -119 -15 -147 -20 -200 -3 -30 -7 -75 -10
-100 -6 -57 -13 -127 -20 -210 -7 -70 -9 -73 -161 -210 -123 -110 -241 -218
-260 -235 -11 -11 -60 -56 -109 -100 -49 -44 -93 -84 -99 -90 -21 -19 -232
-210 -271 -246 -22 -19 -45 -42 -52 -50 -10 -12 324 -14 2607 -14 1741 0 2616
3 2613 10 -3 6 -39 40 -81 77 -42 37 -95 85 -118 105 -38 36 -171 157 -272
248 -24 22 -57 51 -72 65 -15 14 -67 61 -115 105 -49 44 -100 91 -115 105 -15
14 -61 55 -103 93 l-75 68 -7 72 c-3 39 -8 88 -10 107 -2 19 -7 64 -10 100 -3
36 -8 83 -11 105 -7 64 -13 126 -19 195 -3 36 -8 76 -10 90 -2 14 -7 61 -10
105 -4 44 -8 94 -10 110 -7 62 -15 132 -21 195 -3 36 -7 76 -9 90 -11 107 -19
207 -19 220 2 27 15 115 19 130 3 8 7 31 9 50 3 19 10 67 16 105 7 39 13 79
14 90 2 11 6 38 9 60 4 22 9 60 13 85 3 25 7 54 9 65 1 11 8 56 14 100 6 44
13 97 16 119 2 21 7 55 9 75 3 20 8 61 11 91 4 30 8 66 10 80 6 34 32 296 41
395 4 44 8 94 10 110 25 263 25 928 -1 1130 -2 17 -7 66 -10 110 -3 44 -8 94
-10 110 -8 66 -15 122 -19 165 -9 78 -26 214 -31 240 -2 14 -6 43 -9 65 -2 22
-9 69 -15 105 -5 36 -13 85 -16 110 -5 41 -65 390 -86 500 -4 25 -11 59 -14
75 -3 17 -8 41 -11 55 -3 14 -8 34 -10 45 -2 11 -9 49 -15 85 -7 36 -15 68
-19 73 -3 4 -98 -269 -210 -605 -112 -337 -205 -615 -207 -617 -1 -2 -44 15
-95 39 -256 119 -533 176 -883 183 -388 8 -714 -49 -980 -169 -55 -25 -107
-48 -115 -50 -12 -4 -56 121 -210 583 -107 324 -199 601 -206 618 l-12 29 -11
-39z"/>
</g>
</svg>
